<?xml version="1.0" encoding="utf-8"?>
<!-- Generator: Adobe Illustrator 21.0.0, SVG Export Plug-In . SVG Version: 6.00 Build 0)  -->
<svg version="1.1" id="Layer_1" xmlns="http://www.w3.org/2000/svg" xmlns:xlink="http://www.w3.org/1999/xlink" x="0px" y="0px"
	 viewBox="0 0 180 180" style="enable-background:new 0 0 180 180;" xml:space="preserve">
<style type="text/css">
	.st0{fill:url(#XMLID_191_);}
	.st1{fill:url(#XMLID_192_);}
	.st2{fill:url(#XMLID_193_);}
	.st3{fill:url(#XMLID_194_);}
	.st4{fill:url(#SVGID_1_);}
	.st5{fill:url(#XMLID_195_);}
	.st6{fill:url(#XMLID_196_);}
	.st7{fill:url(#XMLID_197_);}
	.st8{fill:url(#XMLID_198_);}
	.st9{fill:url(#XMLID_199_);}
	.st10{opacity:0.85;}
	.st11{clip-path:url(#SVGID_3_);fill:#F48216;}
	.st12{clip-path:url(#SVGID_3_);}
	.st13{clip-path:url(#SVGID_5_);fill:url(#SVGID_6_);}
	.st14{clip-path:url(#SVGID_8_);fill:url(#SVGID_9_);}
	.st15{clip-path:url(#SVGID_11_);fill:url(#SVGID_12_);}
	.st16{clip-path:url(#SVGID_14_);fill:url(#SVGID_15_);}
	.st17{clip-path:url(#SVGID_17_);fill:url(#SVGID_18_);}
	.st18{clip-path:url(#SVGID_20_);fill:url(#SVGID_21_);}
	.st19{clip-path:url(#SVGID_23_);fill:url(#SVGID_24_);}
	.st20{clip-path:url(#SVGID_26_);fill:url(#SVGID_27_);}
	.st21{clip-path:url(#SVGID_29_);fill:url(#SVGID_30_);}
	.st22{clip-path:url(#SVGID_32_);fill:url(#SVGID_33_);}
	.st23{clip-path:url(#SVGID_35_);fill:url(#SVGID_36_);}
	.st24{clip-path:url(#SVGID_38_);fill:url(#SVGID_39_);}
	.st25{clip-path:url(#SVGID_41_);fill:url(#SVGID_42_);}
	.st26{clip-path:url(#SVGID_44_);fill:url(#SVGID_45_);}
	.st27{clip-path:url(#SVGID_47_);fill:url(#SVGID_48_);}
	.st28{clip-path:url(#SVGID_50_);fill:url(#SVGID_51_);}
	.st29{clip-path:url(#SVGID_53_);fill:url(#SVGID_54_);}
	.st30{clip-path:url(#SVGID_56_);fill:url(#SVGID_57_);}
	.st31{clip-path:url(#SVGID_59_);fill:url(#SVGID_60_);}
	.st32{clip-path:url(#SVGID_62_);fill:url(#SVGID_63_);}
	.st33{clip-path:url(#SVGID_65_);fill:url(#SVGID_66_);}
	.st34{clip-path:url(#SVGID_68_);fill:url(#SVGID_69_);}
	.st35{clip-path:url(#SVGID_71_);fill:url(#SVGID_72_);}
	.st36{clip-path:url(#SVGID_74_);fill:url(#SVGID_75_);}
	.st37{clip-path:url(#SVGID_77_);fill:url(#SVGID_78_);}
	.st38{clip-path:url(#SVGID_80_);fill:url(#SVGID_81_);}
	.st39{clip-path:url(#SVGID_83_);fill:url(#SVGID_84_);}
	.st40{clip-path:url(#SVGID_86_);fill:url(#SVGID_87_);}
	.st41{clip-path:url(#SVGID_89_);fill:url(#SVGID_90_);}
	.st42{clip-path:url(#SVGID_92_);fill:url(#SVGID_93_);}
	.st43{clip-path:url(#SVGID_95_);fill:url(#SVGID_96_);}
	.st44{clip-path:url(#SVGID_98_);fill:url(#SVGID_99_);}
	.st45{clip-path:url(#SVGID_101_);fill:url(#SVGID_102_);}
	.st46{clip-path:url(#SVGID_104_);fill:url(#SVGID_105_);}
	.st47{clip-path:url(#SVGID_107_);fill:url(#SVGID_108_);}
	.st48{clip-path:url(#SVGID_110_);fill:url(#SVGID_111_);}
	.st49{clip-path:url(#SVGID_113_);fill:url(#SVGID_114_);}
	.st50{clip-path:url(#SVGID_116_);fill:url(#SVGID_117_);}
	.st51{clip-path:url(#SVGID_119_);fill:url(#SVGID_120_);}
	.st52{clip-path:url(#SVGID_122_);fill:url(#SVGID_123_);}
	.st53{clip-path:url(#SVGID_125_);fill:url(#SVGID_126_);}
	.st54{clip-path:url(#SVGID_128_);fill:url(#SVGID_129_);}
	.st55{clip-path:url(#SVGID_131_);fill:url(#SVGID_132_);}
	.st56{clip-path:url(#SVGID_134_);fill:url(#SVGID_135_);}
	.st57{clip-path:url(#SVGID_137_);fill:url(#SVGID_138_);}
	.st58{clip-path:url(#SVGID_140_);fill:url(#SVGID_141_);}
	.st59{clip-path:url(#SVGID_143_);fill:url(#SVGID_144_);}
	.st60{clip-path:url(#SVGID_146_);fill:url(#SVGID_147_);}
	.st61{clip-path:url(#SVGID_149_);fill:url(#SVGID_150_);}
	.st62{clip-path:url(#SVGID_152_);fill:url(#SVGID_153_);}
	.st63{clip-path:url(#SVGID_155_);fill:url(#SVGID_156_);}
	.st64{clip-path:url(#SVGID_158_);fill:url(#SVGID_159_);}
	.st65{clip-path:url(#SVGID_161_);fill:url(#SVGID_162_);}
	.st66{clip-path:url(#SVGID_164_);fill:url(#SVGID_165_);}
	.st67{clip-path:url(#SVGID_167_);fill:url(#SVGID_168_);}
	.st68{clip-path:url(#SVGID_170_);fill:url(#SVGID_171_);}
	.st69{clip-path:url(#SVGID_173_);fill:url(#SVGID_174_);}
	.st70{clip-path:url(#SVGID_176_);fill:url(#SVGID_177_);}
	.st71{clip-path:url(#SVGID_179_);fill:url(#SVGID_180_);}
	.st72{clip-path:url(#SVGID_182_);fill:url(#SVGID_183_);}
	.st73{clip-path:url(#SVGID_185_);fill:url(#SVGID_186_);}
	.st74{clip-path:url(#SVGID_188_);fill:url(#SVGID_189_);}
	.st75{clip-path:url(#SVGID_191_);fill:url(#SVGID_192_);}
	.st76{clip-path:url(#SVGID_194_);fill:url(#SVGID_195_);}
	.st77{clip-path:url(#SVGID_197_);fill:url(#SVGID_198_);}
	.st78{clip-path:url(#SVGID_200_);fill:url(#SVGID_201_);}
	.st79{clip-path:url(#SVGID_203_);fill:url(#SVGID_204_);}
	.st80{clip-path:url(#SVGID_206_);fill:url(#SVGID_207_);}
	.st81{clip-path:url(#SVGID_209_);fill:url(#SVGID_210_);}
	.st82{clip-path:url(#SVGID_212_);fill:url(#SVGID_213_);}
	.st83{clip-path:url(#SVGID_215_);fill:url(#SVGID_216_);}
	.st84{clip-path:url(#SVGID_218_);fill:url(#SVGID_219_);}
	.st85{clip-path:url(#SVGID_221_);fill:url(#SVGID_222_);}
	.st86{clip-path:url(#SVGID_224_);fill:url(#SVGID_225_);}
	.st87{clip-path:url(#SVGID_227_);fill:url(#SVGID_228_);}
	.st88{clip-path:url(#SVGID_230_);fill:url(#SVGID_231_);}
	.st89{clip-path:url(#SVGID_233_);fill:url(#SVGID_234_);}
	.st90{clip-path:url(#SVGID_236_);fill:url(#SVGID_237_);}
	.st91{clip-path:url(#SVGID_239_);fill:url(#SVGID_240_);}
	.st92{clip-path:url(#SVGID_242_);fill:url(#SVGID_243_);}
	.st93{clip-path:url(#SVGID_245_);fill:url(#SVGID_246_);}
	.st94{clip-path:url(#SVGID_248_);fill:url(#SVGID_249_);}
	.st95{clip-path:url(#SVGID_251_);fill:url(#SVGID_252_);}
	.st96{clip-path:url(#SVGID_254_);fill:url(#SVGID_255_);}
	.st97{clip-path:url(#SVGID_257_);fill:url(#SVGID_258_);}
	.st98{clip-path:url(#SVGID_260_);fill:url(#SVGID_261_);}
	.st99{clip-path:url(#SVGID_263_);fill:url(#SVGID_264_);}
	.st100{clip-path:url(#SVGID_266_);fill:url(#SVGID_267_);}
	.st101{clip-path:url(#SVGID_269_);fill:url(#SVGID_270_);}
	.st102{clip-path:url(#SVGID_272_);fill:url(#SVGID_273_);}
	.st103{clip-path:url(#SVGID_275_);fill:url(#SVGID_276_);}
	.st104{clip-path:url(#SVGID_278_);fill:url(#SVGID_279_);}
	.st105{clip-path:url(#SVGID_281_);fill:url(#SVGID_282_);}
	.st106{clip-path:url(#SVGID_284_);fill:url(#SVGID_285_);}
	.st107{clip-path:url(#SVGID_287_);fill:url(#SVGID_288_);}
	.st108{clip-path:url(#SVGID_290_);fill:url(#SVGID_291_);}
	.st109{clip-path:url(#SVGID_293_);fill:url(#SVGID_294_);}
	.st110{clip-path:url(#SVGID_296_);fill:url(#SVGID_297_);}
	.st111{clip-path:url(#SVGID_299_);fill:url(#SVGID_300_);}
	.st112{clip-path:url(#SVGID_302_);fill:url(#SVGID_303_);}
	.st113{clip-path:url(#SVGID_305_);fill:url(#SVGID_306_);}
	.st114{clip-path:url(#SVGID_308_);fill:url(#SVGID_309_);}
	.st115{clip-path:url(#SVGID_311_);fill:url(#SVGID_312_);}
	.st116{clip-path:url(#SVGID_314_);fill:url(#SVGID_315_);}
	.st117{clip-path:url(#SVGID_317_);fill:url(#SVGID_318_);}
	.st118{clip-path:url(#SVGID_320_);fill:url(#SVGID_321_);}
	.st119{clip-path:url(#SVGID_323_);fill:url(#SVGID_324_);}
	.st120{clip-path:url(#SVGID_326_);fill:url(#SVGID_327_);}
	.st121{clip-path:url(#SVGID_329_);fill:url(#SVGID_330_);}
	.st122{clip-path:url(#SVGID_332_);fill:url(#SVGID_333_);}
	.st123{clip-path:url(#SVGID_335_);fill:url(#SVGID_336_);}
	.st124{fill:#F5F4F5;}
	.st125{fill:#FBD212;}
	.st126{fill:#297C25;}
	.st127{fill:#64280B;}
	.st128{fill:#783C09;}
	.st129{opacity:0.2;fill:#783C09;}
	.st130{fill:#DC3109;}
	.st131{fill:#E6E6E6;}
	.st132{fill:#C8C8C8;}
	.st133{fill:#F6DAB9;}
	.st134{fill:#6E320B;}
	.st135{fill:#F0F0F0;}
	.st136{fill:#323232;}
	.st137{fill:#3C3C3C;}
	.st138{fill:#464646;}
	.st139{fill:#F5D9AE;}
	.st140{fill:#FAC811;}
	.st141{fill:#FA0F0C;}
	.st142{fill:#F79610;}
	.st143{fill:#F8B40C;}
	.st144{fill:#33495E;}
	.st145{fill:#F7300E;}
	.st146{fill:#F8E4C3;}
	.st147{fill:#1F5B78;}
	.st148{fill:#96501D;}
	.st149{fill:#96320B;}
	.st150{fill:#F5F5F5;}
	.st151{fill:#1E6582;}
	.st152{fill:#1E7491;}
	.st153{fill:#145F5F;}
	.st154{fill:#F7E1B8;}
	.st155{opacity:0.61;}
	.st156{fill:#FFFFFF;}
	.st157{opacity:0.36;fill:#999999;}
	.st158{fill:#81C363;}
	.st159{fill:#835FA7;}
	.st160{fill:#327B21;}
	.st161{fill:#287122;}
	.st162{fill:#DC640E;}
	.st163{fill:#146F78;}
	.st164{fill:#117982;}
	.st165{fill:#F1C8AA;}
	.st166{fill:#0A838C;}
	.st167{fill:#165B78;}
	.st168{fill:#166F8C;}
	.st169{fill:#F6DCA8;}
	.st170{fill:#781308;}
	.st171{opacity:0.28;fill:#FFFFFF;}
	.st172{opacity:9.000000e-02;fill:#FFFFFF;}
	.st173{fill:url(#XMLID_200_);}
	.st174{fill:url(#XMLID_201_);}
	.st175{fill:url(#XMLID_202_);}
	.st176{fill:url(#XMLID_203_);}
	.st177{opacity:0.55;fill:#EDB751;}
	.st178{fill:#CBA47B;}
	.st179{fill:#BA9468;}
	.st180{fill:#A07759;}
	.st181{fill:#966745;}
	.st182{fill:#DEBE9D;}
	.st183{opacity:0.5;}
	.st184{opacity:0.55;}
	.st185{opacity:0.32;}
	.st186{fill:#EB9A36;}
	.st187{opacity:0.55;fill:#DA8C35;}
	.st188{fill:#F5C64E;}
	.st189{fill:#C2674D;}
	.st190{fill:#F39946;}
	.st191{fill:#E2762D;}
	.st192{fill:#B25731;}
	.st193{opacity:0.55;fill:#F39946;}
	.st194{fill:#F4E06B;}
	.st195{opacity:0.55;fill:#EABC49;}
	.st196{opacity:0.55;fill:#F2CC49;}
	.st197{fill:#229C57;}
	.st198{fill:#ED444E;}
	.st199{fill:#776974;}
	.st200{opacity:0.65;fill:#6D6067;}
	.st201{fill:#AAA2A9;}
	.st202{fill:#D12627;}
	.st203{fill:#E83634;}
	.st204{fill:#C91F27;}
	.st205{fill:#ED3D39;}
	.st206{fill:#EF7D71;}
	.st207{fill:#E6D2CB;}
	.st208{fill:#E55325;}
	.st209{fill:#D83826;}
	.st210{fill:#EA8D70;}
	.st211{fill:#E7C086;}
	.st212{fill:#D59E64;}
	.st213{fill:#DA9F59;}
	.st214{fill:#F2E4CA;}
	.st215{fill:#D87226;}
	.st216{opacity:0.55;fill:#CC4727;}
	.st217{fill:#BF5C29;}
	.st218{fill:#AF4E26;}
	.st219{fill:#963F25;}
	.st220{fill:#7BB042;}
	.st221{fill:#9FCC3A;}
	.st222{fill:#FCCF13;}
	.st223{fill:#ECA821;}
	.st224{fill:#E42627;}
	.st225{opacity:0.55;fill:#C42127;}
	.st226{fill:#E87724;}
	.st227{opacity:0.32;fill:#F8E4C1;}
	.st228{fill:#F3D199;}
	.st229{opacity:0.35;fill:#D48745;}
	.st230{opacity:0.32;fill:#BA773C;}
	.st231{fill:#D5D8D6;}
	.st232{fill:#B4B9BB;}
	.st233{fill:#D4D5D5;}
	.st234{fill:#EA2935;}
	.st235{fill:#E8F0F0;}
	.st236{fill:#CB2127;}
	.st237{opacity:0.65;fill:#C21D26;}
	.st238{opacity:0.65;fill:#CB4D42;}
	.st239{fill:#DFDFDE;}
	.st240{fill:#D0CFCE;}
	.st241{fill:#B9CED2;}
	.st242{fill:#E2E4E3;}
	.st243{fill:#F8F9F9;}
	.st244{fill:#A1A8A6;}
	.st245{fill:#CFD0D0;}
	.st246{fill:#ADAAB2;}
	.st247{fill:#CFD3D4;}
	.st248{fill:#AA4925;}
	.st249{fill:#E36B23;}
	.st250{fill:#F1A876;}
	.st251{opacity:0.55;fill:#CC5027;}
	.st252{fill:#E77733;}
	.st253{opacity:0.55;fill:#B65127;}
	.st254{fill:#F1BD51;}
	.st255{opacity:0.55;fill:#F1BD51;}
	.st256{opacity:0.55;fill:#D38636;}
	.st257{fill:#DBA950;}
	.st258{opacity:0.75;fill:#F1BD51;}
	.st259{fill:#BB604A;}
	.st260{opacity:0.75;}
	.st261{fill:#905344;}
	.st262{fill:#CDB2B1;}
	.st263{fill:#ECE0DD;}
	.st264{fill:#904C47;}
	.st265{fill:#8F534E;}
	.st266{fill:#8B4C3B;}
	.st267{fill:#A75741;}
	.st268{fill:#B28784;}
	.st269{fill:#F3F3F3;}
	.st270{opacity:0.9;fill:#F3F3F3;}
	.st271{opacity:0.65;fill:#C7CBC9;}
	.st272{opacity:0.35;fill:#90848E;}
	.st273{opacity:0.65;fill:#DFDFDE;}
	.st274{fill:#EC9844;}
	.st275{opacity:0.65;}
	.st276{fill:#D98B42;}
	.st277{fill:#822D19;}
	.st278{fill:#A63F24;}
	.st279{fill:#B2533B;}
	.st280{fill:#CC3131;}
	.st281{fill:#E9D4AF;}
	.st282{fill:#FDCD12;}
	.st283{fill:#6ABEC1;}
	.st284{fill:#4E294B;}
	.st285{opacity:0.55;fill:#8B868A;}
	.st286{opacity:0.5;fill:#3C153A;}
	.st287{fill:#654462;}
	.st288{fill:#DDD5CB;}
	.st289{fill:#665043;}
	.st290{fill:#DB2E37;}
	.st291{fill:#B2373C;}
	.st292{fill:#E5555C;}
	.st293{fill:#F4ECE2;}
	.st294{fill:#199751;}
	.st295{fill:#168C45;}
	.st296{fill:#FAB054;}
	.st297{fill:#AF1A24;}
	.st298{fill:#E78D3B;}
	.st299{fill:#E7A43A;}
	.st300{opacity:0.55;fill:#D98426;}
	.st301{fill:url(#XMLID_204_);}
	.st302{opacity:0.55;fill:#E3A33E;}
	.st303{fill:url(#XMLID_205_);}
	.st304{fill:#F2B536;}
	.st305{fill:url(#XMLID_206_);}
	.st306{fill:#E27F25;}
	.st307{fill:url(#XMLID_207_);}
	.st308{fill:url(#XMLID_208_);}
	.st309{fill:url(#XMLID_209_);}
	.st310{fill:url(#XMLID_210_);}
	.st311{fill:url(#XMLID_211_);}
	.st312{opacity:0.32;fill:#C15C27;}
	.st313{opacity:0.75;fill:#D32734;}
	.st314{opacity:0.75;fill:#D52834;}
	.st315{opacity:0.75;fill:#F3995D;}
	.st316{fill:#993D20;}
	.st317{opacity:0.32;fill:#A24C27;}
	.st318{opacity:0.55;fill:#8C3C1D;}
	.st319{fill:#7A2D17;}
	.st320{fill:#BE4E27;}
	.st321{fill:#8E361D;}
	.st322{opacity:0.5;fill:#9E5939;}
	.st323{opacity:0.32;fill:#B37C60;}
	.st324{fill:#642B11;}
	.st325{fill:#B37C60;}
	.st326{opacity:0.35;}
	.st327{fill:#E29A46;}
	.st328{fill:#73A741;}
	.st329{opacity:0.35;fill:#E5B970;}
	.st330{fill:#B55828;}
	.st331{opacity:0.32;fill:#B55828;}
	.st332{fill:#8D3B1D;}
	.st333{opacity:0.55;fill:#BC9749;}
	.st334{fill:#F8D160;}
	.st335{fill:#F4C22B;}
	.st336{opacity:0.55;fill:#D58A28;}
	.st337{fill:#E7A124;}
	.st338{opacity:0.32;fill:#F8D160;}
	.st339{opacity:0.55;fill:#EB9A36;}
	.st340{fill:#709F40;}
	.st341{opacity:0.55;fill:#B87935;}
	.st342{fill:#ED3937;}
	.st343{fill:#D63333;}
	.st344{opacity:0.55;fill:#D63333;}
	.st345{fill:#CA2327;}
	.st346{fill:#DA4C51;}
	.st347{fill:#F17162;}
	.st348{fill:#E88D23;}
	.st349{fill:#F4A01C;}
	.st350{opacity:0.32;fill:#E39925;}
	.st351{opacity:0.32;fill:#F4C22B;}
	.st352{opacity:0.55;fill:#F4C22B;}
	.st353{fill:#81BB40;}
	.st354{opacity:0.65;fill:#9FCC3A;}
	.st355{fill:#3B873F;}
	.st356{fill:#F07466;}
	.st357{opacity:0.32;fill:#F09B9B;}
	.st358{fill:#DB5044;}
	.st359{fill:url(#XMLID_212_);}
	.st360{fill:url(#XMLID_213_);}
	.st361{fill:url(#XMLID_214_);}
	.st362{fill:url(#XMLID_215_);}
	.st363{fill:url(#XMLID_216_);}
	.st364{opacity:0.75;fill:#F1ACAB;}
	.st365{opacity:0.55;fill:#DD7465;}
	.st366{fill:#F6DF26;}
	.st367{fill:#F4EF6C;}
	.st368{fill:#EFEEEC;}
	.st369{fill:#E1B58B;}
	.st370{fill:#716462;}
	.st371{fill:#E9E5DC;}
	.st372{fill:#D5C2A6;}
	.st373{fill:#EEE9E2;}
	.st374{fill:#E4B347;}
	.st375{fill:#BE7139;}
	.st376{opacity:0.55;fill:#C47F4C;}
	.st377{fill:#F0EBE4;}
	.st378{fill:#EAE5DF;}
	.st379{opacity:0.55;fill:#DAC9B0;}
	.st380{opacity:0.32;fill:#589B43;}
	.st381{fill:#65943F;}
	.st382{fill:url(#XMLID_217_);}
	.st383{fill:url(#XMLID_218_);}
	.st384{fill:url(#XMLID_219_);}
	.st385{fill:url(#XMLID_220_);}
	.st386{fill:url(#XMLID_221_);}
	.st387{fill:url(#XMLID_222_);}
	.st388{fill:url(#XMLID_223_);}
	.st389{fill:url(#XMLID_224_);}
	.st390{fill:#D2923C;}
	.st391{opacity:0.55;fill:#B9866E;}
	.st392{fill:#CC5027;}
	.st393{fill-rule:evenodd;clip-rule:evenodd;fill:#65943F;}
</style>
<g id="Arrow_26">
</g>
<g>
	<linearGradient id="XMLID_191_" gradientUnits="userSpaceOnUse" x1="90" y1="14.8563" x2="90" y2="165.1437">
		<stop  offset="0.6397" style="stop-color:#F00C6E"/>
		<stop  offset="0.7386" style="stop-color:#C10F62"/>
		<stop  offset="0.879" style="stop-color:#8A1153"/>
		<stop  offset="0.9484" style="stop-color:#76114E"/>
	</linearGradient>
	<path id="XMLID_126_" class="st0" d="M68.8,154.6h7.4v1.1v0.4h-5.8v2.9h5v1.1v0.4h-5v2.8h5.8v1.1v0.4h-7.4v-0.4V154.6z M64.1,154.6
		l-2.4,7.5l-2.5-7.5h-0.3h-1l-2.5,7.5l-2.4-7.5h-0.3h-1.4l3.3,10.4H55h0.8h0.3l2.5-7.4L61,165h0.3h1.1l3.3-10.4h-0.6H64.1z
		 M34.7,155.6c0.7,0.7,1.1,1.6,1.1,2.6c0,1-0.4,1.9-1.1,2.6c-0.7,0.7-1.7,1.1-2.9,1.1h-2.5v3h-1.2h-0.4v-0.4v-10h4.1
		C33,154.6,34,154.9,34.7,155.6z M33.5,156.7c-0.4-0.4-1-0.6-1.7-0.6h-2.5v4.3h2.5c0.8,0,1.3-0.2,1.7-0.6c0.4-0.4,0.6-0.9,0.6-1.5
		C34.2,157.6,34,157.2,33.5,156.7z M47.7,156c1,1,1.6,2.3,1.6,3.8c0,1.5-0.5,2.8-1.6,3.8c-1,1-2.3,1.6-3.8,1.6
		c-1.5,0-2.8-0.5-3.8-1.6c-1-1-1.6-2.3-1.6-3.8c0-1.5,0.5-2.8,1.6-3.8c1-1,2.3-1.6,3.8-1.6C45.3,154.4,46.6,154.9,47.7,156z
		 M46.6,162.4c0.8-0.8,1.1-1.6,1.1-2.7c0-1.1-0.4-1.9-1.1-2.7c-0.8-0.8-1.6-1.1-2.7-1.1c-1.1,0-1.9,0.4-2.7,1.1
		c-0.8,0.8-1.1,1.6-1.1,2.7c0,1.1,0.4,1.9,1.1,2.7c0.8,0.8,1.6,1.1,2.7,1.1C44.9,163.6,45.8,163.2,46.6,162.4z M107.1,156
		c1,1,1.6,2.3,1.6,3.8c0,1.5-0.5,2.8-1.6,3.8c-1,1-2.3,1.6-3.8,1.6c-1.5,0-2.8-0.5-3.8-1.6c-1-1-1.6-2.3-1.6-3.8
		c0-1.5,0.5-2.8,1.6-3.8c1-1,2.3-1.6,3.8-1.6C104.8,154.4,106.1,154.9,107.1,156z M106,162.4c0.8-0.8,1.1-1.6,1.1-2.7
		c0-1.1-0.4-1.9-1.1-2.7c-0.8-0.8-1.6-1.1-2.7-1.1c-1.1,0-1.9,0.4-2.7,1.1c-0.8,0.8-1.1,1.6-1.1,2.7c0,1.1,0.4,1.9,1.1,2.7
		c0.8,0.8,1.6,1.1,2.7,1.1C104.4,163.6,105.3,163.2,106,162.4z M112.3,164.5v0.4h0.4h1.2v-4h4.8v-0.4v-1.1h-4.8v-3.3h5.6v-0.4v-1.1
		h-7.2V164.5z M150.7,156c1,1,1.6,2.3,1.6,3.8c0,1.5-0.5,2.8-1.6,3.8c-1,1-2.3,1.6-3.8,1.6c-1.5,0-2.8-0.5-3.8-1.6
		c-1-1-1.6-2.3-1.6-3.8c0-1.5,0.5-2.8,1.6-3.8c1-1,2.3-1.6,3.8-1.6C148.4,154.4,149.7,154.9,150.7,156z M149.6,162.4
		c0.8-0.8,1.1-1.6,1.1-2.7c0-1.1-0.4-1.9-1.1-2.7c-0.8-0.8-1.6-1.1-2.7-1.1c-1.1,0-1.9,0.4-2.7,1.1c-0.8,0.8-1.1,1.6-1.1,2.7
		c0,1.1,0.4,1.9,1.1,2.7c0.8,0.8,1.6,1.1,2.7,1.1C148,163.6,148.8,163.2,149.6,162.4z M86.2,161.2l2.7,3.7H87l-2.4-3.4
		c0,0,0,0-0.1,0h-3.1v3.4h-1.2h-0.4v-10.4h0.4h4.2c1.1,0,2,0.3,2.7,1c0.7,0.7,1,1.5,1,2.5c0,0.8-0.2,1.5-0.7,2.1
		C87.2,160.6,86.8,161,86.2,161.2z M86,156.7c-0.4-0.4-0.9-0.6-1.6-0.6h-3v3.9h3c0.7,0,1.2-0.2,1.6-0.6c0.4-0.4,0.6-0.8,0.6-1.4
		C86.6,157.5,86.4,157.1,86,156.7z M138,161.5l-0.4-0.2l-0.2,0.3c-0.3,0.6-0.8,1-1.4,1.4c-0.6,0.3-1.2,0.5-1.9,0.5
		c-1.1,0-1.9-0.4-2.7-1.1c-0.8-0.8-1.1-1.6-1.1-2.7c0-1.1,0.4-1.9,1.1-2.7c0.8-0.8,1.6-1.1,2.7-1.1c0.7,0,1.3,0.2,1.9,0.5
		c0.6,0.3,1,0.8,1.4,1.4l0.2,0.3l1.4-0.7l-0.2-0.4c-0.5-0.8-1.1-1.5-2-2c-0.8-0.5-1.7-0.7-2.7-0.7c-1.5,0-2.8,0.5-3.8,1.6
		c-1,1-1.6,2.3-1.6,3.8c0,1.5,0.5,2.8,1.6,3.8c1,1,2.3,1.6,3.8,1.6c1,0,1.9-0.2,2.7-0.7c0.8-0.5,1.5-1.2,2-2l0.2-0.4l-0.4-0.2
		L138,161.5z M34,133.3l1.2-2.1l-4-1.9l-1.9-0.9l-1.1,1.8c-0.8,1.4-1.9,2.4-3.3,3.2l0,0c-1.4,0.8-2.8,1.2-4.4,1.2
		c-1.3,0-2.4-0.2-3.4-0.6c-1-0.4-2-1.1-2.9-2c-0.9-0.9-1.5-1.8-2-2.9c-0.4-1-0.6-2.1-0.6-3.4c0-1.3,0.2-2.4,0.6-3.4
		c0.4-1,1.1-2,2-2.9c0.9-0.9,1.9-1.5,2.9-2c1-0.4,2.1-0.6,3.4-0.6c1.6,0,3,0.4,4.4,1.2c1.4,0.8,2.4,1.9,3.3,3.2l1.1,1.8l5.9-2.8
		L34,118c-1.3-2.3-3.2-4.2-5.6-5.6c-2.3-1.4-5-2.1-7.7-2.1c-2.1,0-4.1,0.4-5.9,1.1c-1.8,0.8-3.5,1.9-5,3.4c-1.5,1.5-2.6,3.1-3.4,5
		c-0.8,1.8-1.1,3.8-1.1,5.9c0,2.1,0.4,4.1,1.1,5.9c0.8,1.8,1.9,3.5,3.4,5c1.5,1.5,3.1,2.6,5,3.4c1.8,0.8,3.8,1.1,5.9,1.1
		c2.8,0,5.4-0.7,7.8-2.1C30.8,137.5,32.7,135.6,34,133.3z M40.3,131.6c-0.8-1.8-1.1-3.8-1.1-5.9c0-2.1,0.4-4.1,1.1-5.9
		c0.8-1.8,1.9-3.5,3.4-5c1.5-1.5,3.1-2.6,5-3.4c1.8-0.8,3.8-1.1,5.9-1.1c2.1,0,4.1,0.4,5.9,1.1c1.8,0.8,3.5,1.9,5,3.4
		c1.5,1.5,2.6,3.1,3.4,5c0.8,1.8,1.1,3.8,1.1,5.9c0,2.1-0.4,4.1-1.1,5.9c-0.8,1.8-1.9,3.5-3.4,5c-1.5,1.5-3.1,2.6-5,3.4
		c-1.8,0.8-3.8,1.1-5.9,1.1c-2.1,0-4.1-0.4-5.9-1.1c-1.8-0.8-3.5-1.9-5-3.4C42.2,135.1,41,133.4,40.3,131.6z M46.3,129.1
		c0.4,1,1.1,2,2,2.9c0.9,0.9,1.9,1.5,2.9,2c1,0.4,2.1,0.6,3.4,0.6c1.3,0,2.4-0.2,3.4-0.6c1-0.4,2-1.1,2.9-2c0.9-0.9,1.5-1.8,2-2.9
		c0.4-1,0.6-2.1,0.6-3.4c0-1.3-0.2-2.4-0.6-3.4c-0.4-1-1.1-2-2-2.9c-0.9-0.9-1.8-1.5-2.9-2c-1-0.4-2.1-0.6-3.4-0.6
		c-1.3,0-2.4,0.2-3.4,0.6c-1,0.4-2,1.1-2.9,2c-0.9,0.9-1.5,1.8-2,2.9c-0.4,1-0.6,2.1-0.6,3.4C45.7,126.9,45.9,128.1,46.3,129.1z
		 M98.3,134.1H83.7v-23.3h-6.5v27.5v2.3h21V134.1z M104.8,110.8v29.7h6.5v-29.7h-4.2H104.8z M115.9,110.8l13.7,29.7h3.5h1.5
		l13.7-29.7h-7.1l-9.1,18.2l-9-18.2H115.9z M174.8,117.3v-6.5h-21.9v27.5v2.3h21.9v-6.5h-15.4v-5h13.1v-6.4h-13.1v-5.5H174.8z
		 M90,97.7c11.4,0,16.9-1.3,25.9-7.3c5.8-3.8,10.2-9.1,13.4-15.3l-8.7-4c-1,3.7-7.2,9.4-10.2,11.6c-6.4,4.7-12,5.6-20.2,5.6
		c-14.9,0-30-14.8-30-29.7v-4.5c0-14.4,12.6-26.2,24.5-29c7.6-1.8,16.7-0.5,22.1,2.7c7.2,4.2,9.2,6.8,13.7,13.4l8.4-3.5
		c-0.2-2.8-5.5-8.6-7.3-10.4C94.9,0.5,50.6,20.2,50.6,56.4C50.6,78.9,69.9,97.7,90,97.7z M72.1,43.4c-11.4,17.3,1.5,38,19.9,37.9
		c13,0,22.4-9.1,24.3-20.2c2.4-13.4-7.6-25-16.6-27.3l0,8.4l0,0.4c2.6,0.6,6,4.7,7.2,7c5.5,10.8-2.5,23.9-14.6,23.9
		c-13.6,0-20.1-15.1-14.6-24.2c1.4-2.3,4.4-6,7.2-6.7l0-0.4l0-8.3C79.9,35.2,74.6,39.6,72.1,43.4z M96,29.4l-7.6,0l0,22l7.6,0V29.4z
		"/>
</g>
</svg>
